# File created by Blade
# Date/Time:  Fri Jan 16 15:45:56 2015
#---------------------------------------------------------
:version 1.10
:name HOM
:units
  mass 1.0
  length 1.000000
  angle deg
:documentation
     Acclaim Skeleton File
:root
   axis xyz
   order TX TY TZ RX RY RZ
   position 0.000000 0.000000 0.000000
   orientation 0 0 0
:bonedata
   begin
      id 1
      name Spine_dum
      direction 0.000000 1.000000 0.000000
      length 7.170412
      axis 0.0 0.0 0.0 xyz
   end
   begin
      id 2
      name LeftUpLeg_dum
      direction 1.000000 0.000000 0.000000
      length 4.318350
      axis 0.0 0.0 0.0 xyz
   end
   begin
      id 3
      name RightUpLeg_dum
      direction -1.000000 0.000000 0.000000
      length 4.318350
      axis 0.0 0.0 0.0 xyz
   end
   begin
      id 4
      name Spine
      direction 0.000000 1.000000 0.000000
      length 0.000000
      axis 0.0 0.0 0.0 xyz
      dof rx ry rz
   end
   begin
      id 5
      name Spine_dum1
      direction 0.000000 1.000000 0.000000
      length 14.276153
      axis 0.0 0.0 0.0 xyz
   end
   begin
      id 6
      name Spine_dum2
      direction 0.000000 1.000000 0.000000
      length 10.718243
      axis 0.0 0.0 0.0 xyz
   end
   begin
      id 7
      name Spine_dum3
      direction 0.000000 1.000000 0.000000
      length 10.718243
      axis 0.0 0.0 0.0 xyz
   end
   begin
      id 8
      name Head
      direction 0.000000 1.000000 0.000000
      length 4.527550
      axis 0.0 0.0 0.0 xyz
      dof rx ry rz
   end
   begin
      id 9
      name LeftShoulder
      direction 1.000000 0.000000 0.000000
      length 7.058872
      axis 0.0 0.0 -90.0 xyz
      dof rx ry rz
   end
   begin
      id 10
      name LeftArm
      direction 1.000000 0.000000 0.000000
      length 10.955525
      axis 0.0 0.0 -90.0 xyz
      dof rx ry rz
   end
   begin
      id 11
      name LeftForeArm
      direction 1.000000 0.000000 0.000000
      length 8.193716
      axis 0.0 0.0 -90.0 xyz
      dof ry rz rx
   end
   begin
      id 12
      name LeftHand
      direction 0.000000 0.000000 0.000000
      length 0.000000
      axis 0.0 0.0 -90.0 xyz
      dof rx ry rz
   end
   begin
      id 13
      name LeftHand_dum1
      direction 0.000000 0.000000 0.000000
      length 0.000000
      axis 0.0 0.0 -90.0 xyz
   end
   begin
      id 14
      name LeftHand_dum2
      direction 1.000000 0.000000 0.000000
      length 3.937000
      axis 0.0 0.0 -90.0 xyz
   end
   begin
      id 15
      name LeftHandThumb1
      direction 0.000000 0.000000 1.000000
      length 3.937000
      axis 0.0 0.0 -90.0 xyz
      dof rx rz ry
   end
   begin
      id 16
      name RightShoulder
      direction -1.000000 0.000000 0.000000
      length 7.058872
      axis 0.0 0.0 90.0 xyz
      dof rx ry rz
   end
   begin
      id 17
      name RightArm
      direction -1.000000 0.000000 0.000000
      length 10.955525
      axis 0.0 0.0 90.0 xyz
      dof rx ry rz
   end
   begin
      id 18
      name RightForeArm
      direction -1.000000 0.000000 0.000000
      length 8.193716
      axis 0.0 0.0 90.0 xyz
      dof ry rz rx
   end
   begin
      id 19
      name RightHand
      direction 0.000000 0.000000 0.000000
      length 0.000000
      axis 0.0 0.0 90.0 xyz
      dof rx ry rz
   end
   begin
      id 20
      name RightHand_dum1
      direction 0.000000 0.000000 0.000000
      length 0.000000
      axis 0.0 0.0 90.0 xyz
   end
   begin
      id 21
      name RightHand_dum2
      direction -1.000000 0.000000 0.000000
      length 3.937000
      axis 0.0 0.0 90.0 xyz
   end
   begin
      id 22
      name RightHandThumb1
      direction 0.000000 0.000000 1.000000
      length 3.937000
      axis 0.0 0.0 90.0 xyz
      dof rx rz ry
   end
   begin
      id 23
      name LeftUpLeg
      direction 0.000000 -1.000000 0.000000
      length 17.323638
      axis 0.0 0.0 0.0 xyz
      dof rx ry rz
   end
   begin
      id 24
      name LeftLeg
      direction 0.000000 -1.000000 0.000000
      length 16.270368
      axis 0.0 0.0 0.0 xyz
      dof rx ry rz
   end
   begin
      id 25
      name LeftFoot
      direction 0.000000 -0.258819 0.965926
      length 4.922846
      axis 15.0 0.0 0.0 xyz
      dof rx ry rz
   end
   begin
      id 26
      name LeftToeBase
      direction 0.000000 0.000000 1.000000
      length 2.952750
      axis 0.0 0.0 0.0 xyz
      dof rx ry rz
   end
   begin
      id 27
      name RightUpLeg
      direction 0.000000 -1.000000 0.000000
      length 17.323638
      axis 0.0 0.0 0.0 xyz
      dof rx ry rz
   end
   begin
      id 28
      name RightLeg
      direction 0.000000 -1.000000 0.000000
      length 16.270368
      axis 0.0 0.0 0.0 xyz
      dof rx ry rz
   end
   begin
      id 29
      name RightFoot
      direction 0.000000 -0.258819 0.965926
      length 4.922846
      axis 15.0 0.0 0.0 xyz
      dof rx ry rz
   end
   begin
      id 30
      name RightToeBase
      direction 0.000000 0.000000 1.000000
      length 2.952750
      axis 0.0 0.0 0.0 xyz
      dof rx ry rz
   end
:hierarchy
   begin
      root Spine_dum LeftUpLeg_dum RightUpLeg_dum
      Spine_dum Spine
      LeftUpLeg_dum LeftUpLeg
      RightUpLeg_dum RightUpLeg
      Spine Spine_dum1 Spine_dum2 Spine_dum3
      Spine_dum1 Head
      Spine_dum2 LeftShoulder
      Spine_dum3 RightShoulder
      LeftShoulder LeftArm
      LeftArm LeftForeArm
      LeftForeArm LeftHand
      LeftHand LeftHand_dum1 LeftHand_dum2
      LeftHand_dum1 LeftHandThumb1
      RightShoulder RightArm
      RightArm RightForeArm
      RightForeArm RightHand
      RightHand RightHand_dum1 RightHand_dum2
      RightHand_dum1 RightHandThumb1
      LeftUpLeg LeftLeg
      LeftLeg LeftFoot
      LeftFoot LeftToeBase
      RightUpLeg RightLeg
      RightLeg RightFoot
      RightFoot RightToeBase
   end

# File created by Blade
# Date/Time:  Fri Jan 16 15:45:48 2015
# Frame Rate: 120.000 fps
#------------------------------------------------------
:FULLY-SPECIFIED
:DEGREES
2755
root -5.902319 35.233535 -9.560995 -3.716269 3.669071 -3.957331
Spine 3.214124 -11.044584 -7.307111
Head -11.248619 -19.531794 12.238156
LeftShoulder -23.419404 14.645912 -20.012756
LeftArm 21.471414 -2.970783 -64.017051
LeftForeArm 11.035649 0.000000 16.661099
LeftHand 2.387780 -0.000000 -7.475459
LeftHandThumb1 -26.253704 0.000000 33.147579
RightShoulder -5.576325 9.157051 -35.396558
RightArm 18.147550 -3.112017 -1.145721
RightForeArm -47.320917 -0.000000 47.766577
RightHand -1.200059 0.000000 18.192765
RightHandThumb1 -24.326973 -0.000000 -32.862282
LeftUpLeg 12.165823 8.097002 6.521901
LeftLeg -8.880570 -0.000000 0.000000
LeftFoot -13.843811 23.545160 -10.980826
LeftToeBase 21.383631 -0.000000 -0.000000
RightUpLeg 10.983921 -8.895401 1.041755
RightLeg -1.895481 -0.000000 0.000000
RightFoot -8.632639 -30.088256 6.291715
RightToeBase 13.067234 -0.000000 -0.000000
2756
root -5.896516 35.231285 -9.555595 -3.692633 3.588910 -3.979947
Spine 3.127794 -11.076159 -7.204248
Head -11.174288 -19.532757 12.198380
LeftShoulder -23.424751 14.664938 -19.989379
LeftArm 21.457564 -3.015521 -64.156219
LeftForeArm 11.155377 0.000000 16.603232
LeftHand 2.486851 -0.000000 -7.484145
LeftHandThumb1 -26.253704 0.000000 33.147579
RightShoulder -5.536860 9.392080 -35.375825
RightArm 17.650299 -1.103366 -0.293971
RightForeArm -45.875082 -0.000000 48.126606
RightHand -0.973902 -0.000000 16.960761
RightHandThumb1 -24.326973 -0.000000 -32.862282
LeftUpLeg 12.194518 8.273711 6.558492
LeftLeg -8.939569 -0.000000 0.000000
LeftFoot -13.862437 23.461789 -10.907108
LeftToeBase 21.599175 -0.000000 -0.000000
RightUpLeg 10.965926 -8.876299 1.052978
RightLeg -1.908114 -0.000000 0.000000
RightFoot -8.619548 -30.051421 6.289984
RightToeBase 13.055087 -0.000000 -0.000000
2757
root -5.891448 35.230674 -9.552949 -3.660185 3.520568 -3.991632
Spine 3.038776 -11.127570 -7.150844
Head -11.085626 -19.530548 12.244663
LeftShoulder -23.441741 14.678873 -19.934227
LeftArm 21.441424 -3.064034 -64.309276
LeftForeArm 11.266751 -0.000000 16.584330
LeftHand 2.580433 -0.000000 -7.333977
LeftHandThumb1 -26.253704 0.000000 33.147579
RightShoulder -5.463683 9.629288 -35.263605
RightArm 17.211396 0.822560 0.415742
RightForeArm -43.477524 0.000000 48.301927
RightHand -0.862426 -0.000000 15.370546
RightHandThumb1 -24.326973 -0.000000 -32.862282
LeftUpLeg 12.189920 8.305887 6.559133
LeftLeg -8.955043 -0.000000 0.000000
LeftFoot -13.884931 23.500951 -10.898757
LeftToeBase 21.617222 -0.000000 -0.000000
RightUpLeg 10.934748 -8.849433 1.058310
RightLeg -1.917630 -0.000000 0.000000
RightFoot -8.603423 -30.002130 6.291399
RightToeBase 13.033799 -0.000000 -0.000000
2758
root -5.887118 35.231164 -9.548418 -3.642536 3.445653 -3.991153
Spine 2.965476 -11.140678 -7.105856
Head -11.026461 -19.551324 12.286692
LeftShoulder -23.446507 14.708366 -19.895008
LeftArm 21.442330 -3.119354 -64.447406
LeftForeArm 11.414695 -0.000000 16.588762
LeftHand 2.535522 -0.000000 -7.326663
LeftHandThumb1 -26.253704 0.000000 33.147579
RightShoulder -5.394174 9.819668 -35.169334
RightArm 16.748041 2.922675 1.190367
RightForeArm -41.128244 0.000000 48.465568
RightHand -0.470242 -0.000000 13.710395
RightHandThumb1 -24.326973 -0.000000 -32.862282
LeftUpLeg 12.199698 8.241505 6.540543
LeftLeg -8.951509 -0.000000 0.000000
LeftFoot -13.897961 23.612848 -10.907935
LeftToeBase 21.513831 -0.000000 -0.000000
RightUpLeg 10.921797 -8.800492 1.053972
RightLeg -1.927245 -0.000000 0.000000
RightFoot -8.583348 -29.994272 6.273454
RightToeBase 13.038147 -0.000000 -0.000000
2759
root -5.881951 35.230472 -9.545598 -3.620813 3.382698 -4.003528
Spine 2.896047 -11.148693 -7.030410
Head -10.991019 -19.590149 12.314251
LeftShoulder -23.434813 14.678503 -19.823463
LeftArm 21.408959 -3.154696 -64.607663
LeftForeArm 11.617782 -0.000000 16.541788
LeftHand 2.548461 0.000000 -7.278534
LeftHandThumb1 -26.253704 0.000000 33.147579
RightShoulder -5.340740 10.069918 -35.111615
RightArm 16.286769 4.994669 1.963398
RightForeArm -38.641774 -0.000000 48.653116
RightHand -0.126737 0.000000 12.227871
RightHandThumb1 -24.326973 -0.000000 -32.862282
LeftUpLeg 12.202425 8.257892 6.537430
LeftLeg -8.954638 -0.000000 0.000000
LeftFoot -13.942547 23.639605 -11.035392
LeftToeBase 21.378769 -0.000000 -0.000000
RightUpLeg 10.896358 -8.796784 1.058387
RightLeg -1.928064 -0.000000 0.000000
RightFoot -8.568138 -29.938195 6.270961
RightToeBase 13.039821 -0.000000 -0.000000
2760
root -5.875270 35.228567 -9.544130 -3.589378 3.339150 -4.019833
Spine 2.821851 -11.167541 -6.932792
Head -10.989008 -19.613927 12.330219
LeftShoulder -23.450322 14.640934 -19.769736
LeftArm 21.405024 -3.063414 -64.700981
LeftForeArm 11.758529 -0.000000 16.481087
LeftHand 2.597503 0.000000 -7.381468
LeftHandThumb1 -26.253704 0.000000 33.147579
RightShoulder -5.253929 10.540754 -35.122399
RightArm 15.767869 6.979843 2.842482
RightForeArm -36.130912 -0.000000 48.839974
RightHand 0.490612 -0.000000 10.780181
RightHandThumb1 -24.326973 -0.000000 -32.862282
LeftUpLeg 12.198898 8.381923 6.557431
LeftLeg -8.994925 -0.000000 0.000000
LeftFoot -13.910240 23.604184 -10.825339
LeftToeBase 21.583700 -0.000000 -0.000000
RightUpLeg 10.869173 -8.763083 1.069797
RightLeg -1.942920 -0.000000 0.000000
RightFoot -8.552641 -29.935105 6.265567
RightToeBase 13.009778 -0.000000 -0.000000
2761
root -5.869050 35.227569 -9.542185 -3.557123 3.291228 -4.028415
Spine 2.745192 -11.146028 -6.826748
Head -11.010380 -19.683817 12.307868
LeftShoulder -23.449180 14.606366 -19.736572
LeftArm 21.415220 -2.945119 -64.749092
LeftForeArm 11.871945 0.000000 16.438067
LeftHand 2.596607 -0.000000 -7.447757
LeftHandThumb1 -26.253704 0.000000 33.147579
RightShoulder -5.208512 10.840225 -35.138964
RightArm 15.314728 9.097278 3.686155
RightForeArm -33.417102 -0.000000 48.964081
RightHand 1.230281 -0.000000 9.114981
RightHandThumb1 -24.326973 -0.000000 -32.862282
LeftUpLeg 12.190138 8.404636 6.552846
LeftLeg -9.012490 -0.000000 0.000000
LeftFoot -13.912620 23.635108 -10.818453
LeftToeBase 21.524908 -0.000000 -0.000000
RightUpLeg 10.832109 -8.744000 1.072545
RightLeg -1.939891 -0.000000 0.000000
RightFoot -8.553113 -29.919515 6.249620
RightToeBase 13.062689 -0.000000 -0.000000
2762
root -5.861834 35.226893 -9.539498 -3.537462 3.239091 -4.044412
Spine 2.675968 -11.123301 -6.694544
Head -11.019605 -19.769334 12.236844
LeftShoulder -23.459903 14.599691 -19.732277
LeftArm 21.454081 -2.855761 -64.815629
LeftForeArm 11.855400 0.000000 16.421369
LeftHand 2.715126 -0.000000 -7.424098
LeftHandThumb1 -26.253704 0.000000 33.147579
RightShoulder -5.127724 11.089990 -35.174654
RightArm 14.861664 11.535165 4.670580
RightForeArm -31.308345 0.000000 49.192667
RightHand 2.128292 -0.000000 7.725844
RightHandThumb1 -24.326973 -0.000000 -32.862282
LeftUpLeg 12.199062 8.434381 6.554911
LeftLeg -9.039344 -0.000000 0.000000
LeftFoot -13.952493 23.651420 -10.870010
LeftToeBase 21.684964 -0.000000 -0.000000
RightUpLeg 10.811693 -8.723819 1.078927
RightLeg -1.943110 -0.000000 0.000000
RightFoot -8.542095 -29.892889 6.268592
RightToeBase 13.073889 -0.000000 -0.000000
2763
root -5.854458 35.226300 -9.535171 -3.531654 3.193628 -4.051965
Spine 2.612024 -11.075608 -6.557728
Head -11.024950 -19.945402 12.159155
LeftShoulder -23.434177 14.596336 -19.738765
LeftArm 21.476807 -2.741814 -64.840158
LeftForeArm 11.992821 -0.000000 16.421822
LeftHand 2.558121 -0.000000 -7.777090
LeftHandThumb1 -26.253704 0.000000 33.147579
RightShoulder -5.047521 11.646892 -35.249275
RightArm 14.412593 13.705871 5.649977
RightForeArm -29.354647 -0.000000 49.460872
RightHand 2.480898 -0.000000 6.503452
RightHandThumb1 -24.326973 -0.000000 -32.862282
LeftUpLeg 12.217146 8.440874 6.549250
LeftLeg -9.046280 -0.000000 0.000000
LeftFoot -13.989537 23.693308 -10.869836
LeftToeBase 21.617628 -0.000000 -0.000000
RightUpLeg 10.807098 -8.722353 1.071243
RightLeg -1.941884 -0.000000 0.000000
RightFoot -8.517716 -29.858343 6.248505
RightToeBase 13.051210 -0.000000 -0.000000
2764
root -5.847513 35.227110 -9.536226 -3.485718 3.186846 -4.044205
Spine 2.530409 -11.064990 -6.453772
Head -11.092938 -20.066030 12.115102
LeftShoulder -23.446319 14.569652 -19.723318
LeftArm 21.511485 -2.710743 -64.924430
LeftForeArm 12.066266 -0.000000 16.430049
LeftHand 2.655800 -0.000000 -7.707556
LeftHandThumb1 -26.253704 0.000000 33.147579
RightShoulder -4.954077 11.910043 -35.275800
RightArm 13.985232 16.241281 6.572718
RightForeArm -26.938502 -0.000000 49.713228
RightHand 3.336105 0.000000 5.725590
RightHandThumb1 -24.326973 -0.000000 -32.862282
LeftUpLeg 12.167516 8.410321 6.518957
LeftLeg -9.034549 -0.000000 0.000000
LeftFoot -13.965510 23.731821 -10.821950
LeftToeBase 21.549681 -0.000000 -0.000000
RightUpLeg 10.755540 -8.736206 1.056640
RightLeg -1.933315 -0.000000 0.000000
RightFoot -8.517339 -29.840039 6.243909
RightToeBase 13.064308 -0.000000 -0.000000
